<svg width="24" height="25" viewBox="0 0 24 25" fill="none" xmlns="http://www.w3.org/2000/svg">
<path fill-rule="evenodd" clip-rule="evenodd" d="M15.6501 5.24073L16.4635 5.34203C18.3408 5.57584 19.75 7.17142 19.75 9.06328V19.5527C19.75 21.3896 18.3817 22.9388 16.5589 23.1658C13.5313 23.5429 10.4687 23.5429 7.44107 23.1658C5.61826 22.9388 4.25 21.3896 4.25 19.5527V9.06328C4.25 7.17142 5.6592 5.57584 7.53655 5.34203L8.3499 5.24073C8.67208 4.07988 9.73654 3.22783 11 3.22783H13C14.2635 3.22783 15.3279 4.07988 15.6501 5.24073ZM8.25 6.76476L7.72193 6.83053C6.59552 6.97081 5.75 7.92816 5.75 9.06328V19.5527C5.75 20.6329 6.55458 21.5439 7.62645 21.6773C10.5309 22.0391 13.4691 22.0391 16.3735 21.6773C17.4454 21.5439 18.25 20.6329 18.25 19.5527V9.06328C18.25 7.92817 17.4045 6.97081 16.2781 6.83053L15.75 6.76476V7.97783C15.75 8.39204 15.4142 8.72783 15 8.72783H9C8.58579 8.72783 8.25 8.39204 8.25 7.97783V6.76476ZM9.75 5.97783C9.75 5.28747 10.3096 4.72783 11 4.72783H13C13.6904 4.72783 14.25 5.28747 14.25 5.97783V7.22783H9.75V5.97783Z" fill="black"/>
<path d="M15.75 12.7278C15.75 12.3136 15.4142 11.9778 15 11.9778H9C8.58579 11.9778 8.25 12.3136 8.25 12.7278C8.25 13.142 8.58579 13.4778 9 13.4778H15C15.4142 13.4778 15.75 13.142 15.75 12.7278Z" fill="black"/>
<path d="M14.75 15.7278C14.75 15.3136 14.4142 14.9778 14 14.9778H9C8.58579 14.9778 8.25 15.3136 8.25 15.7278C8.25 16.142 8.58579 16.4778 9 16.4778H14C14.4142 16.4778 14.75 16.142 14.75 15.7278Z" fill="black"/>
</svg>
