<svg width="24" height="25" viewBox="0 0 24 25" fill="none" xmlns="http://www.w3.org/2000/svg">
<path d="M15.75 13.3161C15.75 12.9019 15.4142 12.5661 15 12.5661H9C8.58579 12.5661 8.25 12.9019 8.25 13.3161C8.25 13.7303 8.58579 14.0661 9 14.0661H15C15.4142 14.0661 15.75 13.7303 15.75 13.3161Z" fill="black"/>
<path d="M15.75 17.3161C15.75 16.9019 15.4142 16.5661 15 16.5661H9C8.58579 16.5661 8.25 16.9019 8.25 17.3161C8.25 17.7303 8.58579 18.0661 9 18.0661H15C15.4142 18.0661 15.75 17.7303 15.75 17.3161Z" fill="black"/>
<path fill-rule="evenodd" clip-rule="evenodd" d="M7 2.5661C5.48122 2.5661 4.25 3.79732 4.25 5.3161V19.3161C4.25 20.8349 5.48122 22.0661 7 22.0661H17C18.5188 22.0661 19.75 20.8349 19.75 19.3161V8.28376C19.75 7.90299 19.6258 7.53261 19.3963 7.2288L16.3985 3.26114C16.0677 2.8234 15.5509 2.5661 15.0022 2.5661H7ZM5.75 5.3161C5.75 4.62574 6.30964 4.0661 7 4.0661H14.25V8.46315C14.25 8.87736 14.5858 9.21315 15 9.21315H18.25V19.3161C18.25 20.0065 17.6904 20.5661 17 20.5661H7C6.30964 20.5661 5.75 20.0065 5.75 19.3161V5.3161Z" fill="black"/>
</svg>
