<svg width="22" height="18" viewBox="0 0 22 18" fill="none" xmlns="http://www.w3.org/2000/svg">
<path d="M4.85521 3.83965C4.62278 3.71449 4.34167 3.72075 4.11504 3.85611C3.88841 3.99148 3.74963 4.23602 3.74963 4.5V14C3.74963 14.4142 4.08542 14.75 4.49963 14.75C4.91385 14.75 5.24963 14.4142 5.24963 14V5.75566L10.6441 8.66035C10.866 8.77988 11.1332 8.77988 11.3552 8.66035L16.7496 5.75566V14C16.7496 14.4142 17.0854 14.75 17.4996 14.75C17.9138 14.75 18.2496 14.4142 18.2496 14V4.5C18.2496 4.23602 18.1109 3.99148 17.8842 3.85611C17.6576 3.72075 17.3765 3.71449 17.1441 3.83965L10.9996 7.14818L4.85521 3.83965Z" fill="black"/>
<path fill-rule="evenodd" clip-rule="evenodd" d="M16.3102 0.721835C12.7769 0.405913 9.2224 0.405913 5.68906 0.721835L4.17172 0.857504C2.5441 1.00303 1.22903 2.24645 0.99264 3.86337C0.494641 7.26968 0.494641 10.7303 0.99264 14.1366C1.22903 15.7535 2.5441 16.997 4.17172 17.1425L5.68906 17.2782C9.2224 17.5941 12.7769 17.5941 16.3102 17.2782L17.8276 17.1425C19.4552 16.997 20.7703 15.7535 21.0066 14.1366C21.5046 10.7303 21.5046 7.26968 21.0066 3.86337C20.7703 2.24645 19.4552 1.00303 17.8276 0.857504L16.3102 0.721835ZM5.82265 2.21588C9.26711 1.9079 12.7322 1.9079 16.1766 2.21588L17.694 2.35154C18.6301 2.43524 19.3865 3.15039 19.5224 4.08036C19.9994 7.34278 19.9994 10.6572 19.5224 13.9196C19.3865 14.8496 18.6301 15.5648 17.694 15.6485L16.1766 15.7841C12.7322 16.0921 9.26711 16.0921 5.82265 15.7841L4.3053 15.6485C3.36918 15.5648 2.61282 14.8496 2.47686 13.9196C1.9999 10.6572 1.9999 7.34278 2.47686 4.08036C2.61282 3.1504 3.36918 2.43524 4.3053 2.35154L5.82265 2.21588Z" fill="black"/>
</svg>
