<svg width="24" height="25" viewBox="0 0 24 25" fill="none" xmlns="http://www.w3.org/2000/svg">
<path fill-rule="evenodd" clip-rule="evenodd" d="M12 4.06609C8.75862 4.06609 6.24399 6.09611 5.81483 8.56609H8C8.41421 8.56609 8.75 8.90187 8.75 9.31609V16.3161C8.75 16.7303 8.41421 17.0661 8 17.0661H5C3.48122 17.0661 2.25 15.8349 2.25 14.3161V11.3161C2.25 10.0445 3.11311 8.97441 4.28547 8.65983C4.66693 5.15568 8.0738 2.56609 12 2.56609C15.9262 2.56609 19.3331 5.15568 19.7145 8.65983C20.8869 8.97441 21.75 10.0444 21.75 11.3161V14.3161C21.75 15.5913 20.8821 16.6637 19.7047 16.975C19.3839 19.2865 17.3998 21.0661 15 21.0661H13.8546C13.5579 21.799 12.8393 22.3161 12 22.3161C10.8954 22.3161 10 21.4207 10 20.3161C10 19.2115 10.8954 18.3161 12 18.3161C12.8393 18.3161 13.5579 18.8331 13.8546 19.5661H15C16.5368 19.5661 17.8245 18.4994 18.1631 17.0661H16C15.5858 17.0661 15.25 16.7303 15.25 16.3161V9.31609C15.25 8.90187 15.5858 8.56609 16 8.56609H18.1852C17.756 6.09611 15.2414 4.06609 12 4.06609ZM5 10.0661C4.30964 10.0661 3.75 10.6257 3.75 11.3161V14.3161C3.75 15.0064 4.30964 15.5661 5 15.5661H7.25V10.0661H5ZM20.25 11.3161C20.25 10.6257 19.6904 10.0661 19 10.0661H16.75V15.5661H19C19.6904 15.5661 20.25 15.0064 20.25 14.3161V11.3161Z" fill="black"/>
</svg>
