<svg width="24" height="25" viewBox="0 0 24 25" fill="none" xmlns="http://www.w3.org/2000/svg">
<path d="M6.86461 7.21321C8.17813 5.89517 9.99326 5.08086 12 5.08086C16.0041 5.08086 19.25 8.32679 19.25 12.3309C19.25 16.3349 16.0041 19.5809 12 19.5809C7.99594 19.5809 4.75 16.3349 4.75 12.3309C4.75 11.9166 4.41421 11.5809 4 11.5809C3.58579 11.5809 3.25 11.9166 3.25 12.3309C3.25 17.1633 7.16751 21.0809 12 21.0809C16.8325 21.0809 20.75 17.1633 20.75 12.3309C20.75 7.49836 16.8325 3.58086 12 3.58086C9.57851 3.58086 7.38558 4.56548 5.80213 6.15438C5.77668 6.17991 5.75345 6.20682 5.73245 6.23487L4.47488 4.9773C4.33769 4.84012 4.13353 4.79467 3.95111 4.86072C3.76869 4.92676 3.64094 5.09238 3.62338 5.28559L3.26982 9.17467C3.25639 9.32246 3.30929 9.46857 3.41422 9.5735C3.51914 9.67842 3.66526 9.73132 3.81304 9.71789L7.70213 9.36434C7.89534 9.34677 8.06095 9.21902 8.12699 9.0366C8.19304 8.85418 8.1476 8.65002 8.01041 8.51284L6.7823 7.28472C6.81101 7.26321 6.83854 7.23937 6.86461 7.21321Z" fill="black"/>
<path d="M12.75 7.33086C12.75 6.91664 12.4142 6.58086 12 6.58086C11.5858 6.58086 11.25 6.91664 11.25 7.33086V12.3309C11.25 12.5894 11.3832 12.8298 11.6025 12.9669L14.6025 14.8419C14.9538 15.0614 15.4165 14.9546 15.636 14.6034C15.8555 14.2521 15.7488 13.7894 15.3975 13.5699L12.75 11.9152V7.33086Z" fill="black"/>
</svg>
