<svg width="24" height="24" viewBox="0 0 24 24" fill="none" xmlns="http://www.w3.org/2000/svg">
<path d="M15.9997 7C15.9997 6.44772 16.4474 6 16.9997 6C17.552 6 17.9997 6.44772 17.9997 7C17.9997 7.55228 17.552 8 16.9997 8C16.4474 8 15.9997 7.55228 15.9997 7Z" fill="black"/>
<path fill-rule="evenodd" clip-rule="evenodd" d="M11.9997 7.25C9.37634 7.25 7.24969 9.37665 7.24969 12C7.24969 14.6234 9.37634 16.75 11.9997 16.75C14.623 16.75 16.7497 14.6234 16.7497 12C16.7497 9.37665 14.623 7.25 11.9997 7.25ZM8.74969 12C8.74969 10.2051 10.2048 8.75 11.9997 8.75C13.7946 8.75 15.2497 10.2051 15.2497 12C15.2497 13.7949 13.7946 15.25 11.9997 15.25C10.2048 15.25 8.74969 13.7949 8.74969 12Z" fill="black"/>
<path fill-rule="evenodd" clip-rule="evenodd" d="M17.2579 2.83302C13.7914 2.44557 10.208 2.44557 6.74146 2.83302C4.72941 3.05789 3.10507 4.6429 2.86852 6.66543C2.45398 10.2097 2.45398 13.7903 2.86852 17.3346C3.10507 19.3571 4.72941 20.9421 6.74146 21.167C10.208 21.5544 13.7914 21.5544 17.2579 21.167C19.27 20.9421 20.8943 19.3571 21.1309 17.3346C21.5454 13.7903 21.5454 10.2097 21.1309 6.66543C20.8943 4.6429 19.27 3.05789 17.2579 2.83302ZM6.90807 4.32373C10.2639 3.94867 13.7355 3.94867 17.0913 4.32373C18.4214 4.47239 19.4869 5.52201 19.641 6.83968C20.042 10.2682 20.042 13.7318 19.641 17.1603C19.4869 18.478 18.4214 19.5276 17.0913 19.6763C13.7355 20.0513 10.2639 20.0513 6.90807 19.6763C5.57797 19.5276 4.51248 18.478 4.35837 17.1603C3.95737 13.7318 3.95737 10.2682 4.35837 6.83968C4.51248 5.52201 5.57797 4.47239 6.90807 4.32373Z" fill="black"/>
</svg>
