<svg width="24" height="25" viewBox="0 0 24 25" fill="none" xmlns="http://www.w3.org/2000/svg">
<path d="M10.5001 16.6543C10.5001 15.8259 11.1716 15.1543 12.0001 15.1543C12.8285 15.1543 13.5001 15.8259 13.5001 16.6543C13.5001 17.4828 12.8285 18.1543 12.0001 18.1543C11.1716 18.1543 10.5001 17.4828 10.5001 16.6543Z" fill="black"/>
<path fill-rule="evenodd" clip-rule="evenodd" d="M7.62171 11.2515L7.30627 8.41251C7.26583 8.04854 7.26583 7.6812 7.30627 7.31722L7.32904 7.11232C7.57053 4.93893 9.27913 3.21927 11.4509 2.96377C11.8157 2.92085 12.1843 2.92085 12.5492 2.96377C14.7209 3.21927 16.4295 4.93893 16.671 7.11232L16.6938 7.31722C16.7342 7.6812 16.7342 8.04854 16.6938 8.41251L16.3784 11.2515L17.065 11.3063C18.1477 11.3927 19.0318 12.2066 19.2073 13.2785C19.5734 15.5142 19.5734 17.7945 19.2073 20.0302C19.0318 21.102 18.1477 21.916 17.065 22.0024L15.5688 22.1218C13.1935 22.3115 10.8067 22.3115 8.43134 22.1218L6.93521 22.0024C5.85249 21.916 4.96838 21.1021 4.79286 20.0302C4.42679 17.7945 4.42679 15.5142 4.79286 13.2785C4.96838 12.2066 5.85248 11.3927 6.93521 11.3063L7.62171 11.2515ZM11.6262 4.4535C11.8746 4.42427 12.1255 4.42427 12.3739 4.4535C13.8525 4.62745 15.0158 5.79825 15.1802 7.27797L15.203 7.48287C15.2312 7.73675 15.2312 7.99298 15.203 8.24687L14.8818 11.1373C12.9626 11.0137 11.0375 11.0137 9.11826 11.1373L8.7971 8.24687C8.76889 7.99298 8.76889 7.73675 8.7971 7.48287L8.81986 7.27797C8.98428 5.79825 10.1475 4.62745 11.6262 4.4535ZM15.4495 12.6821C13.1535 12.4988 10.8466 12.4988 8.55071 12.6821L7.05458 12.8015C6.65965 12.8331 6.33717 13.1299 6.27315 13.5209C5.93336 15.596 5.93336 17.7126 6.27315 19.7878C6.33717 20.1787 6.65965 20.4756 7.05458 20.5071L8.55071 20.6266C10.8466 20.8099 13.1535 20.8099 15.4495 20.6266L16.9456 20.5071C17.3405 20.4756 17.663 20.1787 17.727 19.7878C18.0668 17.7126 18.0668 15.596 17.727 13.5209C17.663 13.1299 17.3405 12.8331 16.9456 12.8015L15.4495 12.6821Z" fill="black"/>
</svg>
