<svg width="24" height="25" viewBox="0 0 24 25" fill="none" xmlns="http://www.w3.org/2000/svg">
<path fill-rule="evenodd" clip-rule="evenodd" d="M12.9999 3.9926C12.9999 3.44031 12.5522 2.9926 11.9999 2.9926C11.4477 2.9926 10.9999 3.44031 10.9999 3.9926V4.7426H10.4425C8.21745 4.7426 6.37585 6.47261 6.23695 8.69334L6.01595 12.2268C5.93169 13.574 5.4794 14.8722 4.70834 15.9802C4.01166 16.9812 4.63188 18.3638 5.84281 18.5091L9.24994 18.918V19.9926C9.24994 21.5114 10.4812 22.7426 11.9999 22.7426C13.5187 22.7426 14.7499 21.5114 14.7499 19.9926V18.918L18.1571 18.5091C19.368 18.3638 19.9882 16.9812 19.2915 15.9802C18.5205 14.8723 18.0682 13.574 17.9839 12.2268L17.7629 8.69334C17.624 6.47261 15.7824 4.7426 13.5573 4.7426H12.9999V3.9926ZM10.4425 6.2426C9.00952 6.2426 7.82348 7.35677 7.73403 8.78698L7.51303 12.3204C7.41163 13.9416 6.86738 15.5038 5.93953 16.837C5.88918 16.9094 5.934 17.0093 6.02153 17.0198L9.75919 17.4683C11.2477 17.6469 12.7522 17.6469 14.2407 17.4683L17.9783 17.0198C18.0659 17.0093 18.1107 16.9094 18.0603 16.837C17.1325 15.5038 16.5882 13.9416 16.4868 12.3204L16.2658 8.78698C16.1764 7.35677 14.9903 6.2426 13.5573 6.2426H10.4425ZM11.9999 21.2426C11.3096 21.2426 10.7499 20.683 10.7499 19.9926V19.2426H13.2499V19.9926C13.2499 20.683 12.6903 21.2426 11.9999 21.2426Z" fill="black"/>
</svg>
