<svg width="362" height="362" viewBox="0 0 362 362" fill="none" xmlns="http://www.w3.org/2000/svg">
<path d="M279.175 315.861C285.954 318.484 285.767 322.481 278.748 324.786L191.632 353.349C184.619 355.647 173.395 355.392 166.617 352.769L82.414 320.238C75.6358 317.615 75.8222 313.618 82.842 311.313L169.958 282.75C176.971 280.452 188.194 280.707 194.972 283.33L279.175 315.861Z" fill="#D2E3FF"/>
<path d="M259.256 290.715C259.249 290.807 259.23 290.9 259.208 290.993C259.204 291.008 259.204 291.022 259.197 291.034C259.167 291.134 259.13 291.23 259.086 291.327C259.075 291.353 259.06 291.379 259.045 291.405C259.008 291.475 258.967 291.549 258.922 291.62C258.904 291.646 258.889 291.676 258.87 291.702C258.844 291.742 258.807 291.779 258.778 291.82L258.804 290.566C258.804 290.622 258.793 290.677 258.785 290.733C258.778 290.804 258.767 290.87 258.748 290.937C258.737 290.978 258.726 291.019 258.715 291.06C258.696 291.119 258.674 291.182 258.648 291.241C258.629 291.282 258.611 291.327 258.592 291.368C258.562 291.423 258.529 291.479 258.496 291.538C258.47 291.579 258.444 291.624 258.418 291.664C258.384 291.713 258.344 291.761 258.306 291.809C258.266 291.861 258.225 291.913 258.177 291.965C258.132 292.013 258.084 292.058 258.039 292.106C257.987 292.158 257.939 292.206 257.88 292.258C257.824 292.306 257.765 292.355 257.705 292.403C257.646 292.451 257.587 292.499 257.524 292.544C257.453 292.596 257.379 292.644 257.301 292.696C257.234 292.74 257.171 292.785 257.101 292.826C257.004 292.885 256.896 292.945 256.793 293.004C256.729 293.041 256.67 293.074 256.603 293.112C256.414 293.212 256.21 293.308 255.995 293.401C255.824 293.475 255.65 293.546 255.464 293.62C255.412 293.638 255.36 293.657 255.308 293.679C255.13 293.746 254.948 293.813 254.755 293.876L189.334 315.33C189.038 315.427 188.726 315.516 188.41 315.601C188.355 315.616 188.295 315.631 188.24 315.65C187.917 315.735 187.59 315.813 187.253 315.883C187.242 315.887 187.23 315.887 187.219 315.891C186.878 315.961 186.525 316.028 186.169 316.087C186.058 316.106 185.943 316.121 185.828 316.139C185.579 316.176 185.327 316.214 185.071 316.247C184.937 316.265 184.804 316.28 184.67 316.295C184.481 316.317 184.292 316.336 184.102 316.351C183.691 316.392 183.279 316.421 182.859 316.447C182.744 316.455 182.629 316.462 182.514 316.47C182.34 316.477 182.166 316.481 181.991 316.488C181.75 316.496 181.509 316.507 181.268 316.507C181.141 316.507 181.012 316.507 180.882 316.507C180.607 316.507 180.336 316.507 180.062 316.503C179.943 316.499 179.824 316.499 179.702 316.496C179.379 316.488 179.06 316.473 178.737 316.458C178.678 316.455 178.618 316.455 178.563 316.451C178.188 316.429 177.817 316.399 177.446 316.369C177.353 316.362 177.264 316.351 177.171 316.343C176.859 316.314 176.551 316.28 176.247 316.24C176.177 316.232 176.11 316.225 176.039 316.214C175.679 316.165 175.327 316.113 174.978 316.054C174.893 316.039 174.811 316.024 174.726 316.009C174.448 315.961 174.173 315.909 173.902 315.854C173.806 315.835 173.709 315.817 173.616 315.794C173.294 315.724 172.978 315.65 172.667 315.572C172.641 315.564 172.615 315.56 172.589 315.553C172.247 315.464 171.913 315.368 171.59 315.264C171.26 315.16 170.941 315.048 170.633 314.93C170.607 314.919 170.574 314.911 170.548 314.9L107.312 290.47C107.108 290.392 106.919 290.31 106.733 290.228C106.685 290.206 106.637 290.184 106.589 290.162C106.429 290.091 106.277 290.017 106.132 289.943C106.106 289.932 106.08 289.917 106.058 289.906C105.921 289.835 105.787 289.761 105.661 289.69C105.65 289.683 105.639 289.676 105.628 289.672C105.483 289.586 105.349 289.501 105.219 289.416C105.186 289.394 105.153 289.371 105.119 289.345C104.986 289.253 104.86 289.16 104.745 289.067C104.737 289.063 104.733 289.056 104.726 289.052C104.618 288.963 104.518 288.87 104.425 288.781C104.399 288.755 104.377 288.733 104.351 288.707C104.258 288.611 104.169 288.514 104.091 288.418C104.088 288.414 104.088 288.41 104.084 288.407C104.01 288.314 103.947 288.217 103.891 288.121C103.876 288.095 103.861 288.073 103.847 288.047C103.791 287.946 103.743 287.85 103.706 287.75C103.706 287.746 103.706 287.746 103.706 287.742C103.668 287.646 103.642 287.546 103.624 287.449C103.62 287.423 103.613 287.397 103.609 287.375C103.594 287.275 103.583 287.178 103.587 287.078L103.561 288.34C103.535 288.303 103.505 288.266 103.483 288.232C103.435 288.154 103.39 288.08 103.349 288.002C103.194 287.694 103.116 287.382 103.123 287.074L102.707 308.392C102.681 309.631 103.965 310.893 106.566 311.898L169.802 336.329C169.806 336.329 169.806 336.332 169.809 336.332C169.835 336.343 169.861 336.351 169.887 336.358C170.21 336.481 170.54 336.596 170.885 336.703C170.9 336.707 170.915 336.714 170.93 336.718C171.245 336.818 171.572 336.911 171.906 336.996C171.91 336.996 171.913 336.996 171.917 337C171.943 337.008 171.969 337.011 171.991 337.019C172.258 337.089 172.533 337.156 172.811 337.215C172.867 337.226 172.923 337.238 172.978 337.249C173.075 337.271 173.175 337.29 173.275 337.312C173.409 337.338 173.542 337.367 173.679 337.393C173.824 337.419 173.976 337.445 174.125 337.471C174.214 337.486 174.299 337.505 174.388 337.516C174.436 337.523 174.485 337.534 174.533 337.542C174.815 337.586 175.101 337.627 175.386 337.668C175.42 337.672 175.449 337.675 175.483 337.679C175.553 337.69 175.628 337.698 175.698 337.705C175.88 337.727 176.062 337.753 176.247 337.772C176.384 337.787 176.522 337.798 176.655 337.813C176.748 337.82 176.845 337.831 176.937 337.839C177 337.846 177.064 337.85 177.127 337.857C177.427 337.883 177.731 337.906 178.032 337.924C178.051 337.924 178.069 337.924 178.088 337.928C178.147 337.931 178.21 337.932 178.269 337.935C178.503 337.946 178.737 337.961 178.971 337.969C179.067 337.972 179.164 337.972 179.264 337.976C179.386 337.98 179.513 337.983 179.635 337.983C179.743 337.987 179.854 337.991 179.961 337.991C180.136 337.991 180.307 337.991 180.481 337.987C180.615 337.987 180.748 337.987 180.878 337.987C180.93 337.987 180.982 337.987 181.034 337.987C181.23 337.983 181.427 337.972 181.624 337.965C181.806 337.957 181.987 337.954 182.166 337.946C182.203 337.946 182.236 337.943 182.273 337.943C182.355 337.939 182.433 337.928 182.514 337.924C182.948 337.898 183.379 337.865 183.806 337.824C183.887 337.816 183.973 337.813 184.054 337.805C184.169 337.794 184.284 337.779 184.399 337.765C184.537 337.75 184.678 337.731 184.815 337.716C185.078 337.683 185.342 337.646 185.602 337.605C185.72 337.586 185.835 337.572 185.954 337.553C186.321 337.49 186.689 337.427 187.041 337.353C187.06 337.349 187.078 337.345 187.097 337.342C187.39 337.278 187.679 337.215 187.958 337.141C188.006 337.13 188.051 337.115 188.099 337.104C188.158 337.089 188.217 337.071 188.277 337.056C188.603 336.967 188.926 336.874 189.23 336.774L254.655 315.319C254.767 315.282 254.874 315.245 254.982 315.208C255.011 315.197 255.037 315.186 255.067 315.175C255.152 315.145 255.234 315.115 255.316 315.082C255.394 315.052 255.472 315.022 255.546 314.993C255.624 314.959 255.702 314.93 255.78 314.896C255.828 314.878 255.88 314.855 255.928 314.837C255.943 314.829 255.958 314.822 255.973 314.815C256.18 314.722 256.381 314.625 256.566 314.529C256.581 314.522 256.6 314.514 256.614 314.507C256.637 314.496 256.659 314.481 256.681 314.47C256.83 314.392 256.967 314.31 257.101 314.228C257.115 314.217 257.138 314.21 257.152 314.199C257.16 314.195 257.164 314.191 257.167 314.188C257.305 314.099 257.434 314.013 257.553 313.92C257.564 313.913 257.575 313.906 257.587 313.898C257.609 313.883 257.624 313.865 257.642 313.85C257.728 313.783 257.813 313.713 257.887 313.646C257.906 313.631 257.924 313.616 257.943 313.598C257.954 313.586 257.961 313.575 257.973 313.568C258.065 313.479 258.154 313.39 258.236 313.301C258.236 313.301 258.236 313.301 258.24 313.297C258.318 313.204 258.388 313.115 258.451 313.022C258.459 313.011 258.466 313.004 258.473 312.993C258.485 312.978 258.492 312.959 258.503 312.941C258.548 312.87 258.588 312.796 258.626 312.726C258.633 312.707 258.648 312.692 258.655 312.674C258.659 312.666 258.663 312.655 258.666 312.648C258.711 312.551 258.748 312.451 258.778 312.355C258.778 312.351 258.781 312.347 258.781 312.343C258.785 312.332 258.785 312.321 258.789 312.31C258.811 312.217 258.83 312.124 258.837 312.032C258.837 312.017 258.844 312.002 258.844 311.987C258.848 311.954 258.848 311.924 258.848 311.891L259.264 290.573C259.267 290.622 259.26 290.67 259.256 290.715Z" fill="#71A5FC"/>
<path d="M326.573 232.181C326.56 232.353 326.525 232.526 326.484 232.698C326.477 232.726 326.477 232.754 326.463 232.774C326.408 232.961 326.339 233.14 326.256 233.32C326.235 233.368 326.207 233.416 326.18 233.465C326.111 233.596 326.035 233.734 325.952 233.865C325.918 233.913 325.89 233.969 325.855 234.017C325.807 234.093 325.738 234.162 325.683 234.238L325.731 231.905C325.731 232.008 325.711 232.112 325.697 232.215C325.683 232.346 325.662 232.471 325.628 232.595C325.607 232.671 325.586 232.747 325.566 232.823C325.531 232.933 325.49 233.051 325.441 233.161C325.407 233.237 325.372 233.32 325.338 233.396C325.283 233.499 325.22 233.603 325.158 233.713C325.11 233.789 325.062 233.872 325.013 233.948C324.951 234.038 324.875 234.127 324.806 234.217C324.73 234.314 324.654 234.41 324.565 234.507C324.482 234.597 324.392 234.679 324.309 234.769C324.213 234.866 324.123 234.956 324.013 235.052C323.909 235.142 323.799 235.232 323.688 235.321C323.578 235.411 323.467 235.501 323.35 235.584C323.219 235.68 323.081 235.77 322.936 235.867C322.811 235.95 322.694 236.032 322.563 236.108C322.384 236.219 322.183 236.329 321.99 236.44C321.873 236.509 321.762 236.571 321.638 236.64C321.286 236.826 320.906 237.006 320.506 237.178C320.189 237.316 319.864 237.447 319.519 237.585C319.422 237.62 319.326 237.654 319.229 237.696C318.898 237.82 318.56 237.944 318.201 238.062L196.503 277.972C195.951 278.151 195.371 278.317 194.785 278.476C194.681 278.503 194.571 278.531 194.467 278.565C193.867 278.724 193.259 278.869 192.631 279C192.61 279.007 192.59 279.007 192.569 279.014C191.934 279.145 191.278 279.269 190.616 279.38C190.409 279.414 190.195 279.442 189.981 279.476C189.518 279.545 189.049 279.614 188.572 279.677C188.324 279.711 188.076 279.739 187.827 279.766C187.475 279.808 187.123 279.842 186.771 279.87C186.005 279.946 185.239 280.001 184.459 280.049C184.245 280.063 184.031 280.077 183.817 280.091C183.492 280.105 183.168 280.111 182.843 280.125C182.395 280.139 181.946 280.16 181.497 280.16C181.263 280.16 181.021 280.16 180.78 280.16C180.269 280.16 179.765 280.16 179.254 280.153C179.033 280.146 178.812 280.146 178.585 280.139C177.984 280.125 177.391 280.098 176.79 280.07C176.68 280.063 176.569 280.063 176.466 280.056C175.768 280.015 175.078 279.96 174.388 279.904C174.215 279.891 174.05 279.87 173.877 279.856C173.297 279.801 172.724 279.739 172.158 279.663C172.027 279.649 171.903 279.635 171.772 279.614C171.102 279.525 170.447 279.428 169.798 279.318C169.639 279.29 169.487 279.262 169.328 279.235C168.811 279.145 168.3 279.048 167.796 278.945C167.617 278.91 167.437 278.876 167.265 278.835C166.664 278.703 166.077 278.565 165.498 278.42C165.449 278.407 165.401 278.4 165.353 278.386C164.718 278.22 164.096 278.041 163.496 277.847C162.882 277.654 162.288 277.447 161.715 277.226C161.667 277.206 161.605 277.192 161.556 277.171L43.9246 231.725C43.5449 231.58 43.1929 231.428 42.8478 231.277C42.7581 231.235 42.6683 231.194 42.5786 231.152C42.2818 231.021 41.9988 230.883 41.7296 230.745C41.6813 230.724 41.633 230.697 41.5915 230.676C41.3362 230.545 41.0877 230.407 40.853 230.276C40.8323 230.262 40.8116 230.248 40.7909 230.241C40.5217 230.082 40.2732 229.924 40.0316 229.765C39.9695 229.724 39.9073 229.682 39.8452 229.634C39.5967 229.461 39.362 229.289 39.1481 229.116C39.1343 229.109 39.1274 229.095 39.1136 229.089C38.9134 228.923 38.727 228.75 38.5545 228.585C38.5062 228.536 38.4647 228.495 38.4164 228.447C38.2439 228.267 38.0782 228.088 37.9333 227.908C37.9264 227.901 37.9263 227.894 37.9194 227.887C37.7814 227.715 37.6641 227.535 37.5605 227.356C37.5329 227.308 37.5053 227.266 37.4777 227.218C37.3742 227.032 37.2844 226.852 37.2154 226.666C37.2154 226.659 37.2154 226.659 37.2154 226.652C37.1464 226.472 37.098 226.286 37.0635 226.107C37.0566 226.058 37.0428 226.01 37.0359 225.969C37.0083 225.782 36.9876 225.603 36.9945 225.416L36.9462 227.763C36.8979 227.694 36.8427 227.625 36.8012 227.563C36.7115 227.418 36.6287 227.28 36.5528 227.135C36.2629 226.562 36.1179 225.982 36.1317 225.409L35.3586 265.064C35.3103 267.37 37.6986 269.716 42.5372 271.587L160.169 317.033C160.176 317.033 160.176 317.04 160.183 317.04C160.231 317.06 160.279 317.074 160.328 317.088C160.928 317.316 161.542 317.53 162.184 317.73C162.212 317.737 162.24 317.751 162.267 317.757C162.854 317.944 163.461 318.116 164.083 318.275C164.089 318.275 164.096 318.275 164.103 318.282C164.152 318.296 164.2 318.303 164.241 318.317C164.738 318.448 165.249 318.572 165.767 318.682C165.87 318.703 165.974 318.724 166.077 318.745C166.257 318.786 166.443 318.82 166.63 318.862C166.878 318.91 167.127 318.965 167.382 319.014C167.651 319.062 167.934 319.11 168.21 319.159C168.376 319.186 168.535 319.221 168.7 319.242C168.79 319.255 168.88 319.276 168.97 319.29C169.494 319.373 170.026 319.449 170.557 319.524C170.619 319.531 170.674 319.538 170.737 319.545C170.868 319.566 171.006 319.58 171.137 319.594C171.475 319.635 171.813 319.683 172.158 319.718C172.414 319.745 172.669 319.766 172.918 319.794C173.09 319.808 173.27 319.828 173.442 319.842C173.56 319.856 173.677 319.863 173.794 319.877C174.353 319.925 174.919 319.966 175.479 320.001C175.513 320.001 175.548 320.001 175.582 320.008C175.692 320.015 175.81 320.015 175.92 320.021C176.355 320.042 176.79 320.07 177.225 320.084C177.404 320.09 177.584 320.091 177.77 320.097C177.998 320.104 178.233 320.111 178.46 320.111C178.661 320.118 178.868 320.125 179.068 320.125C179.392 320.125 179.71 320.125 180.034 320.118C180.283 320.118 180.531 320.118 180.773 320.118C180.869 320.118 180.966 320.118 181.063 320.118C181.428 320.111 181.794 320.091 182.16 320.077C182.498 320.063 182.837 320.056 183.168 320.042C183.237 320.042 183.299 320.035 183.368 320.035C183.52 320.028 183.665 320.008 183.817 320.001C184.624 319.952 185.425 319.89 186.219 319.814C186.371 319.801 186.529 319.794 186.681 319.78C186.895 319.759 187.109 319.732 187.323 319.704C187.579 319.676 187.841 319.642 188.096 319.614C188.586 319.552 189.076 319.483 189.56 319.407C189.78 319.373 189.994 319.345 190.215 319.311C190.899 319.193 191.582 319.076 192.238 318.938C192.272 318.931 192.307 318.924 192.341 318.917C192.887 318.8 193.425 318.682 193.943 318.544C194.032 318.524 194.115 318.496 194.205 318.475C194.315 318.448 194.426 318.413 194.536 318.386C195.144 318.22 195.744 318.047 196.31 317.861L318.014 277.951C318.221 277.882 318.422 277.813 318.622 277.744C318.677 277.723 318.725 277.703 318.78 277.682C318.939 277.627 319.091 277.571 319.243 277.509C319.388 277.454 319.533 277.399 319.671 277.344C319.816 277.281 319.961 277.226 320.106 277.164C320.195 277.13 320.292 277.088 320.382 277.054C320.409 277.04 320.437 277.026 320.465 277.012C320.851 276.84 321.224 276.66 321.569 276.481C321.597 276.467 321.631 276.453 321.659 276.439C321.7 276.419 321.742 276.391 321.783 276.37C322.059 276.225 322.315 276.074 322.563 275.922C322.591 275.901 322.632 275.887 322.66 275.866C322.673 275.86 322.68 275.853 322.687 275.846C322.943 275.68 323.184 275.521 323.405 275.349C323.426 275.335 323.447 275.321 323.467 275.307C323.509 275.28 323.536 275.245 323.571 275.218C323.73 275.093 323.888 274.962 324.026 274.838C324.061 274.81 324.095 274.783 324.13 274.748C324.151 274.728 324.164 274.707 324.185 274.693C324.358 274.527 324.523 274.362 324.675 274.196C324.675 274.196 324.675 274.196 324.682 274.189C324.827 274.017 324.958 273.851 325.076 273.678C325.089 273.658 325.103 273.644 325.117 273.623C325.138 273.596 325.151 273.561 325.172 273.527C325.255 273.395 325.331 273.257 325.4 273.126C325.414 273.092 325.441 273.064 325.455 273.03C325.462 273.016 325.469 272.995 325.476 272.981C325.559 272.802 325.628 272.615 325.683 272.436C325.683 272.429 325.69 272.422 325.69 272.415C325.697 272.395 325.697 272.374 325.704 272.353C325.745 272.181 325.78 272.008 325.793 271.835C325.793 271.808 325.807 271.78 325.807 271.753C325.814 271.69 325.814 271.635 325.814 271.573L326.587 231.919C326.594 232.008 326.58 232.098 326.573 232.181Z" fill="#BDCFEB"/>
<path d="M319.664 226.324C329.195 230.001 328.931 235.62 319.066 238.853L196.583 278.965C186.718 282.198 170.942 281.83 161.412 278.154L43.0264 232.478C33.4956 228.801 33.7595 223.182 43.6238 219.949L166.108 179.837C175.972 176.604 191.748 176.972 201.279 180.648L319.664 226.324Z" fill="url(#paint0_linear_383_1054)"/>
<g filter="url(#filter0_i_383_1054)">
<path d="M279.353 226.949C286.131 229.571 285.945 233.568 278.925 235.873L191.809 264.436C184.796 266.734 173.573 266.479 166.794 263.856L82.5913 231.325C75.813 228.702 75.9994 224.705 83.0192 222.4L170.135 193.837C177.148 191.539 188.371 191.794 195.15 194.417L279.353 226.949Z" fill="url(#paint1_linear_383_1054)"/>
</g>
<path d="M279.353 226.949C286.131 229.571 285.945 233.568 278.925 235.873L191.809 264.436C184.796 266.734 173.573 266.479 166.794 263.856L82.5913 231.325C75.813 228.702 75.9994 224.705 83.0192 222.4L170.135 193.837C177.148 191.539 188.371 191.794 195.15 194.417L279.353 226.949Z" stroke="white" stroke-opacity="0.19" stroke-width="2.4602" stroke-miterlimit="10"/>
<g filter="url(#filter1_f_383_1054)">
<path d="M239.702 229.73C243.794 231.313 243.684 233.729 239.441 235.118L186.825 252.368C182.59 253.757 175.813 253.597 171.714 252.014L120.857 232.365C116.765 230.782 116.875 228.366 121.118 226.977L173.734 209.727C177.969 208.338 184.746 208.498 188.845 210.081L239.702 229.73Z" fill="#4285F4" fill-opacity="0.5"/>
</g>
<path d="M239.702 224.679C243.794 226.261 243.684 228.678 239.441 230.067L186.825 247.316C182.59 248.705 175.813 248.545 171.714 246.963L120.857 227.314C116.765 225.731 116.875 223.315 121.118 221.926L173.734 204.676C177.969 203.287 184.746 203.447 188.845 205.03L239.702 224.679Z" fill="url(#paint2_linear_383_1054)" stroke="url(#paint3_linear_383_1054)" stroke-miterlimit="10"/>
<path opacity="0.3" d="M84.186 6.73488V228.718L180.137 265.696L182.397 8.98635L84.186 6.73488Z" fill="url(#paint4_linear_383_1054)"/>
<path opacity="0.3" d="M280.608 11.1373V233.12L180.138 265.696L182.398 8.9863L280.608 11.1373Z" fill="url(#paint5_linear_383_1054)"/>
<path d="M146.996 116.689C146.853 116.647 146.7 116.688 146.557 116.647C146.415 116.685 146.338 116.627 146.185 116.668C146.031 116.709 145.889 116.667 145.669 116.726L144.639 117.002C144.42 117.061 144.19 117.202 143.971 117.261C143.894 117.281 143.894 117.281 143.828 117.378C143.686 117.496 143.456 117.558 143.313 117.675C143.236 117.696 143.236 117.696 143.171 117.793C142.951 117.931 142.732 118.058 142.579 118.258L153.528 108.743L153.604 108.723L154.043 108.378L154.12 108.358C154.196 108.337 154.196 108.337 154.262 108.24C154.339 108.219 154.404 108.122 154.481 108.102C154.558 108.081 154.635 107.981 154.777 107.943C154.854 107.923 154.854 107.923 154.92 107.826L154.996 107.805C155.139 107.767 155.369 107.626 155.588 107.567L156.914 107.212C156.991 107.191 157.057 107.173 157.134 107.232C157.287 107.191 157.353 107.253 157.506 107.212C157.583 107.191 157.649 107.174 157.725 107.233C157.802 107.212 157.868 107.274 157.945 107.253L158.613 107.301C158.69 107.28 158.756 107.342 158.832 107.322C158.909 107.301 158.909 107.381 158.975 107.363C159.347 107.411 159.72 107.549 160.158 107.659L164.816 109.168L153.867 118.682L149.209 117.173C148.837 117.046 148.398 116.925 148.026 116.878C147.872 116.839 147.807 116.857 147.653 116.83C147.434 116.719 147.215 116.698 146.996 116.689Z" fill="#4285F4"/>
<path d="M162.667 110.413C162.667 106.895 163.554 103.889 165.111 101.713C165.626 100.963 166.218 100.35 166.886 99.7852L177.835 90.2704C175.249 92.4952 173.615 96.3027 173.615 100.978V112.006L162.667 121.521V110.413ZM191.436 131.036L202.385 121.522L173.615 112.006L162.667 121.521L191.436 131.036ZM214.069 147.484C214.069 147.257 213.992 146.971 213.926 146.75C213.926 146.603 213.849 146.385 213.849 146.237C213.849 146.09 213.773 145.952 213.707 145.822C213.63 145.615 213.553 145.398 213.553 145.171C213.477 145.044 213.477 144.964 213.411 144.823C213.334 144.617 213.268 144.328 213.192 144.11C213.192 144.031 213.115 143.904 213.115 143.825C212.973 143.477 212.819 143.212 212.677 142.864C212.677 142.864 212.677 142.785 212.6 142.805L212.162 142.004C212.085 141.945 212.085 141.797 212.019 141.735C211.877 141.467 211.723 141.202 211.57 141.016C211.57 140.937 211.493 140.957 211.493 140.889C211.274 140.642 211.12 140.297 210.901 140.049C210.824 139.99 210.748 139.943 210.748 139.784L210.309 139.209C210.233 139.082 210.167 139.021 210.09 138.882C209.937 138.765 209.794 138.576 209.641 138.469C209.498 138.36 209.422 138.222 209.268 138.104C209.126 137.995 209.049 137.856 208.895 137.818C208.676 137.65 208.457 137.482 208.304 137.285L208.008 137.058C207.569 136.721 207.12 136.456 206.671 136.19C206.594 136.132 206.528 136.081 206.451 136.102C206.002 135.836 205.487 135.668 204.972 135.5L200.314 133.99L211.263 124.476L215.921 125.985C216.436 126.153 216.885 126.339 217.4 126.587C217.477 126.646 217.543 126.696 217.62 126.676C218.058 126.944 218.507 127.209 218.946 127.546L219.022 127.605L219.242 127.773C219.461 127.941 219.68 128.121 219.833 128.306L220.053 128.475C220.129 128.533 220.129 128.613 220.195 128.663C220.338 128.773 220.414 128.911 220.568 129.017C220.645 129.076 220.71 129.206 220.787 129.265C220.864 129.324 220.929 129.386 220.929 129.454C221.006 129.581 221.083 129.64 221.149 129.781C221.225 129.84 221.291 129.89 221.291 129.97C221.368 130.108 221.51 130.217 221.587 130.355C221.664 130.414 221.73 130.465 221.73 130.624C221.73 130.703 221.806 130.682 221.806 130.751C221.96 130.936 222.102 131.205 222.256 131.47V131.549C222.256 131.629 222.332 131.608 222.332 131.676C222.409 131.883 222.552 132.003 222.628 132.21C222.705 132.268 222.705 132.337 222.771 132.478C222.847 132.537 222.847 132.684 222.924 132.743C223.001 132.802 223.001 132.87 223.067 132.932C223.143 133.138 223.286 133.327 223.363 133.545C223.363 133.545 223.363 133.624 223.439 133.603C223.582 133.872 223.659 134.078 223.812 134.343C223.812 134.423 223.812 134.423 223.889 134.47C223.965 134.529 223.965 134.677 223.965 134.756C224.042 134.883 224.042 135.042 224.108 135.183C224.108 135.262 224.185 135.389 224.185 135.469C224.261 135.596 224.261 135.675 224.327 135.816C224.327 135.896 224.404 135.943 224.404 136.023C224.48 136.15 224.48 136.309 224.48 136.456C224.557 136.583 224.557 136.742 224.623 136.883C224.623 136.963 224.623 136.963 224.7 137.01C224.7 137.158 224.7 137.237 224.776 137.375C224.853 137.582 224.853 137.888 224.919 138.109V138.563C224.996 139.075 224.996 139.688 224.996 140.233L224.853 195.551C224.853 198.615 223.812 201.038 222.113 202.492L211.164 212.007C212.863 210.553 213.904 208.141 213.904 205.077L214.047 149.759C214.047 149.225 213.97 148.633 213.97 148.089C214.069 147.79 214.069 147.642 214.069 147.484Z" fill="#4285F4"/>
<path d="M140.374 124.965V124.964C140.374 122.004 141.369 119.802 142.845 118.532C144.323 117.26 146.459 116.771 148.965 117.58C148.966 117.58 148.967 117.58 148.968 117.581L153.621 119.167L154.348 119.416V118.541V107.513C154.348 99.9613 156.935 94.1144 160.958 90.6668C164.983 87.2176 170.617 86.0234 176.924 88.1102L176.925 88.1103C183.229 90.1907 188.981 95.141 193.147 101.481C197.313 107.822 199.868 115.512 199.831 123.031L199.831 123.034L199.831 134.063V134.353L200.074 134.432L204.729 135.94C204.73 135.94 204.73 135.94 204.731 135.94C207.194 136.758 209.451 138.701 211.094 141.209C212.736 143.716 213.739 146.749 213.739 149.704C213.739 149.704 213.739 149.704 213.739 149.705L213.596 205.022L213.596 205.023C213.596 207.979 212.585 210.187 211.098 211.462C209.608 212.738 207.471 213.225 205.005 212.407L205.005 212.407L149.241 194.047L140.374 124.965ZM140.374 124.965L140.232 180.282M140.374 124.965L140.232 180.282M140.232 180.282C140.232 180.283 140.232 180.283 140.232 180.283M140.232 180.282V180.283M140.232 180.283C140.232 183.238 141.234 186.271 142.877 188.778C144.52 191.286 146.777 193.229 149.24 194.047L140.232 180.283ZM162.424 122.018L162.183 121.939V121.65V110.621C162.183 105.804 163.853 101.839 166.672 99.4246C169.489 97.0113 173.286 96.2904 177.331 97.6311C181.379 98.9725 185.02 102.146 187.648 106.158C190.277 110.169 191.919 115.06 191.919 119.878V130.907V131.773L191.194 131.534L162.424 122.018Z" fill="url(#paint6_linear_383_1054)" stroke="url(#paint7_linear_383_1054)"/>
<path d="M200.173 119.357C200.096 118.844 200.03 118.249 199.954 117.657C199.877 117.065 199.734 116.411 199.658 115.819C199.581 115.385 199.515 115.017 199.438 114.573C199.362 114.207 199.219 113.792 199.143 113.426C199 112.931 198.847 112.36 198.693 111.856C198.617 111.57 198.474 111.223 198.397 110.937C198.178 110.383 198.025 109.732 197.805 109.178C197.729 108.972 197.663 108.683 197.51 108.486C197.214 107.646 196.841 106.906 196.468 106.087C196.392 106.028 196.392 105.881 196.326 105.819C195.953 105.147 195.657 104.466 195.296 103.791C195.142 103.606 195.076 103.385 194.923 103.199C194.55 102.527 194.189 101.944 193.816 101.351L193.597 100.945C193.147 100.226 192.632 99.5126 192.117 98.8904L191.679 98.3158C191.306 97.8029 190.934 97.3695 190.495 96.9423L189.827 96.2024C189.454 95.8483 189.158 95.4624 188.785 95.0971L187.898 94.1889C187.602 93.8824 187.306 93.6554 187.01 93.3489C186.495 92.8742 185.969 92.4819 185.454 92.0866L184.489 91.3465C184.27 91.1784 183.974 90.9513 183.678 90.7923C183.24 90.524 182.79 90.1905 182.352 89.9222C182.056 89.7746 181.837 89.595 181.541 89.4474C181.092 89.182 180.576 88.9456 180.061 88.6978C179.842 88.6091 179.623 88.4295 179.316 88.3643C178.582 88.0277 177.836 87.7622 177.091 87.508C176.357 87.2396 175.688 87.1124 174.954 86.9347C174.801 86.8964 174.581 86.887 174.439 86.8458C173.77 86.7186 173.113 86.5884 172.444 86.5406C172.367 86.5612 172.367 86.5612 172.302 86.4994C171.71 86.431 171.195 86.4102 170.603 86.5007C170.307 86.5006 169.934 86.5323 169.638 86.5322C169.189 86.5732 168.827 86.5907 168.378 86.643C168.159 86.7017 167.929 86.684 167.71 86.7427C167.194 86.8807 166.668 86.9423 166.23 87.1392L165.857 87.239C165.265 87.3976 164.674 87.6356 164.148 87.9241C164.005 87.9622 163.852 88.0828 163.709 88.121C163.271 88.3179 162.821 88.5858 162.449 88.8445C162.306 88.9621 162.153 89.0032 162.076 89.0918C161.561 89.4568 161.035 89.836 160.52 90.2804L171.469 80.7656C171.545 80.7451 171.545 80.6657 171.611 80.648C171.984 80.3213 172.357 80.0626 172.795 79.7182C172.872 79.6976 172.937 79.6006 173.014 79.58C173.157 79.4624 173.31 79.4213 173.387 79.3326C173.606 79.1945 173.759 79.0853 173.979 78.9471C174.198 78.809 174.417 78.7502 174.647 78.6205C174.79 78.5823 174.943 78.4618 175.097 78.4206C175.173 78.4001 175.239 78.303 175.316 78.2825C175.765 78.0827 176.28 77.8766 176.719 77.7591L178.275 77.3421C178.417 77.3039 178.494 77.2833 178.648 77.3217C178.867 77.2629 179.086 77.2836 179.316 77.2219C179.535 77.1632 179.765 77.1015 179.985 77.1222C180.204 77.0635 180.357 77.1018 180.576 77.1112C180.872 77.1113 181.245 77.0795 181.541 77.0797C181.683 77.1209 181.914 77.0592 182.056 77.0211C182.429 77.0006 182.867 77.0307 183.24 77.0897C183.316 77.0691 183.316 77.0691 183.382 77.1309C183.821 77.161 184.347 77.2583 184.785 77.2883C185.004 77.309 185.158 77.336 185.377 77.4361C185.519 77.4773 185.75 77.4951 185.892 77.525C186.561 77.6522 187.295 77.8412 188.04 78.0954C188.774 78.3525 189.52 78.618 190.254 78.9545C190.473 79.0547 190.703 79.2199 190.999 79.2881C191.514 79.5359 191.964 79.8013 192.479 80.0377C192.775 80.1853 192.994 80.3649 193.29 80.5125C193.728 80.7808 194.178 81.0462 194.616 81.3826C194.912 81.5302 195.131 81.7779 195.427 81.9255C195.57 82.0348 195.723 82.1526 195.942 82.2413C196.096 82.3591 196.238 82.5478 196.457 82.6366C196.973 83.0319 197.499 83.5036 198.014 83.8989L198.529 84.2941C198.671 84.4035 198.825 84.5212 198.901 84.6595L199.789 85.5676C200.008 85.7358 200.162 85.9216 200.381 86.1806C200.524 86.3694 200.677 86.5552 200.83 86.6729L201.499 87.4128C201.652 87.61 201.795 87.7193 201.948 87.9052C202.168 88.2322 202.387 88.5593 202.694 88.7834L203.132 89.3581C203.209 89.4169 203.274 89.4674 203.351 89.6057C203.801 90.1774 204.162 90.7726 204.535 91.3536C204.535 91.433 204.612 91.4125 204.612 91.4805C204.688 91.6188 204.754 91.7487 204.831 91.8076C205.127 92.1822 205.346 92.668 205.642 93.0426C205.784 93.2314 205.861 93.4491 206.014 93.6349C206.157 93.8237 206.234 94.0414 206.387 94.2272C206.464 94.4336 206.606 94.5543 206.683 94.7606C206.979 95.2146 207.198 95.7686 207.428 96.2402C207.505 96.2991 207.505 96.4466 207.571 96.5084C207.571 96.5084 207.571 96.5878 207.647 96.5673C207.943 97.1801 208.239 97.861 208.535 98.4739C208.612 98.6008 208.612 98.6803 208.678 98.8215C208.754 99.0279 208.82 99.3166 208.974 99.5024C209.116 99.85 209.27 100.115 209.346 100.48C209.423 100.766 209.489 100.976 209.565 101.261C209.642 101.547 209.785 101.895 209.861 102.181C209.938 102.387 210.015 102.525 210.015 102.752C210.092 103.117 210.157 103.474 210.311 103.739C210.387 104.105 210.53 104.52 210.607 104.886C210.607 105.033 210.683 105.171 210.683 105.33C210.76 105.616 210.76 105.922 210.837 106.208C210.979 106.783 211.056 107.454 211.133 108.047C211.133 108.194 211.209 108.412 211.209 108.559C211.286 108.924 211.286 109.31 211.352 109.746C211.352 110.053 211.429 110.259 211.429 110.566C211.505 111.464 211.505 112.304 211.505 113.223V124.252L200.556 133.766V122.738C200.556 121.898 200.48 120.999 200.48 120.08C200.173 119.97 200.173 119.663 200.173 119.357ZM179.02 147.604C174.954 146.243 171.699 149.112 171.699 153.935C171.699 157.611 173.551 161.324 176.28 163.509V171.009C176.28 172.847 177.541 174.654 179.02 175.177C180.5 175.699 181.76 174.59 181.76 172.831V165.331C184.423 164.924 186.341 162.424 186.341 158.748C186.265 153.935 183.01 148.907 179.02 147.604Z" fill="#4285F4"/>
<path d="M172.431 182.298V174.798L180.421 167.834V175.334C180.421 176.254 180.125 176.946 179.61 177.39L171.62 184.353C172.135 183.909 172.431 183.217 172.431 182.298Z" fill="#98BFFF"/>
<path d="M167.994 156.765C167.917 156.786 167.775 156.745 167.698 156.765C167.621 156.786 167.479 156.745 167.402 156.765C167.26 156.803 167.106 156.765 167.029 156.786L166.284 156.985C166.065 157.044 165.911 157.085 165.769 157.203L165.627 157.241C165.473 157.282 165.331 157.4 165.254 157.488C165.177 157.509 165.177 157.509 165.111 157.606L164.673 157.95L172.663 150.987L172.74 150.967C172.882 150.849 172.959 150.76 173.112 150.719L173.189 150.699C173.266 150.678 173.266 150.678 173.331 150.581C173.408 150.56 173.474 150.463 173.551 150.443C173.627 150.422 173.693 150.405 173.77 150.305L173.989 150.246C174.131 150.208 174.285 150.087 174.427 150.049L175.534 149.752C175.611 149.732 175.688 149.711 175.688 149.791C175.764 149.77 175.907 149.811 175.984 149.791L176.126 149.753C176.203 149.732 176.203 149.812 176.269 149.794C176.411 149.835 176.641 149.774 176.784 149.815C176.86 149.794 176.926 149.856 176.926 149.856L177.014 149.912L177.902 150.128C178.34 150.317 178.866 150.482 179.305 150.751C179.458 150.857 179.6 150.898 179.754 151.016C179.973 151.184 180.192 151.284 180.422 151.45L180.718 151.677C180.795 151.735 180.861 151.786 180.938 151.924L181.233 152.151C181.453 152.319 181.606 152.517 181.825 152.753C181.902 152.812 181.968 152.862 182.044 153.001C182.044 153.08 182.121 153.059 182.121 153.139L182.34 153.307L182.779 153.882C182.921 154.07 182.998 154.277 183.151 154.395V154.542C183.228 154.669 183.371 154.869 183.447 154.996C183.524 155.202 183.667 155.391 183.743 155.529C183.82 155.736 183.886 155.877 184.039 156.063C184.116 156.269 184.193 156.487 184.335 156.676L184.554 157.309C184.631 157.436 184.631 157.516 184.631 157.674C184.631 157.754 184.631 157.754 184.708 157.801C184.708 157.881 184.784 157.928 184.784 158.008C184.861 158.294 184.938 158.579 185.004 158.789C185.004 158.936 185.08 159.154 185.08 159.301C185.08 159.381 185.08 159.449 185.157 159.587C185.157 159.667 185.157 159.735 185.234 159.794C185.311 160.306 185.311 160.771 185.311 161.225C185.311 163.597 184.5 165.505 183.162 166.703L175.173 173.666C176.51 172.547 177.321 170.639 177.321 168.188C177.321 167.655 177.244 167.063 177.178 166.468C177.178 166.388 177.178 166.32 177.102 166.182C177.025 165.669 176.882 165.163 176.729 164.591C176.729 164.512 176.729 164.512 176.652 164.464C176.51 163.89 176.28 163.339 175.984 162.885C175.764 162.331 175.469 161.797 175.096 161.364V161.285C174.8 160.831 174.427 160.386 174.055 159.952C174.055 159.873 173.978 159.893 173.978 159.825C173.605 159.471 173.309 159.085 172.948 158.797C172.871 158.738 172.805 158.687 172.729 158.549L171.841 157.868C171.698 157.747 171.545 157.72 171.402 157.599C170.953 157.334 170.515 157.145 169.989 156.98L169.101 156.764C169.024 156.705 168.882 156.743 168.805 156.696C168.367 156.813 168.213 156.786 167.994 156.765Z" fill="#98BFFF"/>
<path d="M169.771 157.05C165.704 155.689 162.449 158.558 162.449 163.38C162.449 167.056 164.302 170.77 167.031 172.943V180.443C167.031 182.281 168.291 184.088 169.771 184.611C171.25 185.133 172.511 184.024 172.511 182.265V174.765C175.174 174.358 177.092 171.847 177.092 168.182C177.092 163.36 173.771 158.44 169.771 157.05Z" fill="white"/>
<defs>
<filter id="filter0_i_383_1054" x="76.3984" y="191.038" width="209.147" height="80.1964" filterUnits="userSpaceOnUse" color-interpolation-filters="sRGB">
<feFlood flood-opacity="0" result="BackgroundImageFix"/>
<feBlend mode="normal" in="SourceGraphic" in2="BackgroundImageFix" result="shape"/>
<feColorMatrix in="SourceAlpha" type="matrix" values="0 0 0 0 0 0 0 0 0 0 0 0 0 0 0 0 0 0 127 0" result="hardAlpha"/>
<feOffset dy="4"/>
<feGaussianBlur stdDeviation="2.5"/>
<feComposite in2="hardAlpha" operator="arithmetic" k2="-1" k3="1"/>
<feColorMatrix type="matrix" values="0 0 0 0 0.2 0 0 0 0 0.2 0 0 0 0 0.2 0 0 0 1 0"/>
<feBlend mode="normal" in2="shape" result="effect1_innerShadow_383_1054"/>
</filter>
<filter id="filter1_f_383_1054" x="107.86" y="198.781" width="144.838" height="64.5321" filterUnits="userSpaceOnUse" color-interpolation-filters="sRGB">
<feFlood flood-opacity="0" result="BackgroundImageFix"/>
<feBlend mode="normal" in="SourceGraphic" in2="BackgroundImageFix" result="shape"/>
<feGaussianBlur stdDeviation="5" result="effect1_foregroundBlur_383_1054"/>
</filter>
<linearGradient id="paint0_linear_383_1054" x1="181.345" y1="177.633" x2="181.345" y2="281.169" gradientUnits="userSpaceOnUse">
<stop stop-color="#4285F4"/>
<stop offset="1" stop-color="white"/>
</linearGradient>
<linearGradient id="paint1_linear_383_1054" x1="77.4508" y1="227.302" x2="283.286" y2="233.195" gradientUnits="userSpaceOnUse">
<stop stop-color="#4285F4"/>
<stop offset="0.9144" stop-color="#DFDFDF"/>
</linearGradient>
<linearGradient id="paint2_linear_383_1054" x1="180.28" y1="203.73" x2="180.28" y2="248.262" gradientUnits="userSpaceOnUse">
<stop stop-color="#4285F4"/>
<stop offset="1" stop-color="#CACACA"/>
</linearGradient>
<linearGradient id="paint3_linear_383_1054" x1="180.28" y1="188.577" x2="180.28" y2="218.884" gradientUnits="userSpaceOnUse">
<stop stop-color="white"/>
<stop offset="1" stop-color="white" stop-opacity="0"/>
</linearGradient>
<linearGradient id="paint4_linear_383_1054" x1="133.293" y1="265.694" x2="133.293" y2="6.73278" gradientUnits="userSpaceOnUse">
<stop stop-color="#4285F4" stop-opacity="0.58"/>
<stop offset="1" stop-color="white" stop-opacity="0"/>
</linearGradient>
<linearGradient id="paint5_linear_383_1054" x1="230.373" y1="265.694" x2="227.723" y2="6.31396" gradientUnits="userSpaceOnUse">
<stop stop-color="#4285F4"/>
<stop offset="1" stop-color="#8C8C8C" stop-opacity="0"/>
</linearGradient>
<linearGradient id="paint6_linear_383_1054" x1="176.985" y1="84.3638" x2="211.311" y2="212.469" gradientUnits="userSpaceOnUse">
<stop stop-color="#4285F4"/>
<stop offset="1" stop-color="#CCCCCC"/>
</linearGradient>
<linearGradient id="paint7_linear_383_1054" x1="211.946" y1="167.53" x2="151.006" y2="150.606" gradientUnits="userSpaceOnUse">
<stop stop-color="white" stop-opacity="0.3"/>
<stop offset="1" stop-color="white" stop-opacity="0"/>
</linearGradient>
</defs>
</svg>
