<svg width="24" height="25" viewBox="0 0 24 25" fill="none" xmlns="http://www.w3.org/2000/svg">
<path fill-rule="evenodd" clip-rule="evenodd" d="M5.84023 10.1725C7.62754 14.0643 10.808 17.1585 14.7618 18.8351L14.7743 18.8404L15.5381 19.1808C16.5107 19.6142 17.6539 19.3064 18.2776 18.4433L19.5519 16.6796C19.6298 16.5719 19.6097 16.4221 19.5063 16.3386L17.2815 14.5438C17.1709 14.4546 17.0083 14.4754 16.9237 14.5895L16.0578 15.7579C15.8475 16.0417 15.4678 16.1403 15.146 15.9947C12.1896 14.6567 9.81391 12.281 8.47598 9.32461C8.33037 9.00285 8.42896 8.62309 8.71272 8.41281L9.88109 7.54695C9.99526 7.46235 10.016 7.29972 9.92682 7.18912L8.13178 4.96408C8.04835 4.86066 7.8986 4.84058 7.79087 4.91835L6.01758 6.19851C5.14879 6.8257 4.84283 7.97854 5.28629 8.95399L5.83963 10.1712C5.83983 10.1716 5.84003 10.172 5.84023 10.1725ZM14.1699 20.2134C9.87386 18.3898 6.4185 15.0268 4.47645 10.797L4.47528 10.7945L3.92078 9.57478C3.18168 7.94903 3.69161 6.02762 5.13959 4.98231L6.91288 3.70215C7.667 3.15774 8.71523 3.29835 9.29923 4.02224L11.0943 6.24729C11.7188 7.02146 11.5734 8.15985 10.7742 8.75209L10.1047 9.24825C11.2356 11.4426 13.028 13.235 15.2224 14.3659L15.7185 13.6964C16.3108 12.8973 17.4492 12.7518 18.2234 13.3764L20.4481 15.1712C21.1722 15.7553 21.3126 16.804 20.7678 17.5581L19.4934 19.3218C18.454 20.7603 16.5487 21.2733 14.9276 20.551L14.1699 20.2134Z" fill="black"/>
</svg>
