<svg width="20" height="21" viewBox="0 0 20 21" fill="none" xmlns="http://www.w3.org/2000/svg">
<path d="M14.1971 0.264893H5.8129C2.17108 0.264893 0 2.43489 0 6.07489V14.4449C0 18.0949 2.17108 20.2649 5.8129 20.2649H14.1871C17.8289 20.2649 20 18.0949 20 14.4549V6.07489C20.01 2.43489 17.8389 0.264893 14.1971 0.264893ZM13.3667 12.5649C13.6568 12.8549 13.6568 13.3349 13.3667 13.6249C13.2166 13.7749 13.0265 13.8449 12.8364 13.8449C12.6463 13.8449 12.4562 13.7749 12.3061 13.6249L10.005 11.3249L7.70384 13.6249C7.55376 13.7749 7.36367 13.8449 7.17357 13.8449C6.98348 13.8449 6.79339 13.7749 6.64331 13.6249C6.50376 13.4838 6.4255 13.2933 6.4255 13.0949C6.4255 12.8965 6.50376 12.706 6.64331 12.5649L8.94446 10.2649L6.64331 7.96489C6.50376 7.82375 6.4255 7.63332 6.4255 7.43489C6.4255 7.23646 6.50376 7.04603 6.64331 6.90489C6.93345 6.61489 7.41369 6.61489 7.70384 6.90489L10.005 9.20489L12.3061 6.90489C12.5963 6.61489 13.0765 6.61489 13.3667 6.90489C13.6568 7.19489 13.6568 7.67489 13.3667 7.96489L11.0655 10.2649L13.3667 12.5649Z" fill="black"/>
</svg>
